<?xml version="1.0" standalone="no"?>
<!DOCTYPE svg PUBLIC "-//W3C//DTD SVG 20010904//EN"
 "http://www.w3.org/TR/2001/REC-SVG-20010904/DTD/svg10.dtd">
<svg version="1.0" xmlns="http://www.w3.org/2000/svg"
 width="636.000000pt" height="636.000000pt" viewBox="0 0 636.000000 636.000000"
 preserveAspectRatio="xMidYMid meet">
<metadata>
Created by potrace 1.14, written by Peter Selinger 2001-2017
</metadata>
<g transform="translate(0.000000,636.000000) scale(0.100000,-0.100000)"
fill="#000000" stroke="none">
<path d="M2875 6305 c-621 -65 -1182 -292 -1665 -675 -135 -107 -394 -365
-500 -500 -431 -544 -664 -1180 -687 -1875 -24 -744 218 -1473 687 -2065 107
-135 365 -393 500 -500 945 -749 2219 -900 3310 -393 200 93 446 247 630 393
136 108 395 367 500 500 431 544 664 1182 687 1875 24 745 -217 1472 -687
2065 -107 135 -365 393 -500 500 -460 364 -979 584 -1570 665 -161 22 -541 28
-705 10z m1675 -1412 c164 -27 368 -104 504 -191 215 -137 406 -345 512 -554
49 -98 52 -108 27 -108 -28 0 -135 -54 -220 -111 -90 -61 -272 -234 -381 -364
-99 -117 -229 -294 -432 -585 -249 -357 -276 -396 -379 -525 -113 -142 -327
-359 -461 -467 -452 -364 -963 -541 -1447 -500 -226 20 -408 68 -608 162 -344
161 -653 444 -880 805 -56 88 -177 327 -190 374 -7 23 -6 24 31 18 22 -3 104
-20 184 -37 339 -73 667 -41 943 93 143 69 232 133 364 260 139 134 216 227
513 622 294 390 375 489 503 612 314 299 667 473 1042 513 100 10 251 4 375
-17z m-2760 -75 c5 -13 28 -82 50 -154 52 -169 55 -172 241 -232 142 -46 144
-47 144 -76 0 -23 -6 -31 -25 -37 -14 -4 -79 -24 -145 -45 -161 -49 -170 -59
-225 -234 -46 -146 -53 -160 -81 -160 -23 0 -27 8 -78 175 -52 169 -56 172
-242 233 -135 44 -144 49 -147 74 -3 26 0 28 145 74 191 60 196 64 254 244 25
74 48 141 52 148 13 20 47 14 57 -10z m3133 -2697 c70 -30 149 -110 183 -184
39 -87 40 -196 2 -279 -106 -230 -397 -287 -573 -112 -24 24 -56 70 -71 102
-24 49 -28 70 -29 147 0 77 4 98 27 147 45 96 137 173 235 198 57 14 171 5
226 -19z"/>
</g>
</svg>
