<?xml version="1.0" standalone="no"?>
<!DOCTYPE svg PUBLIC "-//W3C//DTD SVG 20010904//EN"
 "http://www.w3.org/TR/2001/REC-SVG-20010904/DTD/svg10.dtd">
<svg version="1.0" xmlns="http://www.w3.org/2000/svg"
 width="512.000000pt" height="512.000000pt" viewBox="0 0 512.000000 512.000000"
 preserveAspectRatio="xMidYMid meet">
<metadata>
Created by potrace 1.14, written by Peter Selinger 2001-2017
</metadata>
<g transform="translate(0.000000,512.000000) scale(0.100000,-0.100000)"
fill="#000000" stroke="none">
<path d="M2379 5116 c-2 -2 -38 -6 -79 -10 -64 -6 -207 -29 -315 -51 -150 -31
-385 -115 -555 -199 -795 -395 -1327 -1158 -1418 -2036 -14 -140 -7 -504 12
-615 3 -16 8 -43 10 -60 7 -48 36 -185 52 -245 154 -561 474 -1035 934 -1384
152 -115 330 -220 490 -290 47 -21 94 -42 105 -47 62 -28 307 -101 415 -123
216 -43 292 -51 525 -51 247 0 291 4 585 61 132 25 390 118 552 199 332 166
587 367 842 665 264 309 487 794 551 1203 24 147 29 227 29 422 1 192 -2 251
-15 330 -4 28 -10 66 -13 85 -2 19 -10 60 -16 90 -6 30 -14 66 -16 80 -3 14
-16 64 -30 112 -164 584 -526 1085 -1036 1432 -54 36 -101 66 -105 66 -3 0
-14 6 -22 14 -20 18 -257 137 -331 166 -196 79 -432 142 -620 166 -25 3 -56 8
-70 10 -29 6 -456 15 -461 10z m416 -250 c17 -2 53 -7 80 -11 28 -3 61 -8 75
-11 14 -2 38 -7 54 -10 353 -64 738 -244 1026 -483 63 -51 247 -234 304 -301
272 -318 461 -740 522 -1170 25 -176 24 -456 -1 -645 -6 -42 -7 -46 -25 -135
-6 -30 -14 -66 -16 -80 -45 -226 -226 -625 -366 -805 -5 -5 -36 -46 -70 -90
-118 -154 -331 -354 -510 -478 -227 -158 -572 -307 -813 -351 -27 -5 -85 -16
-170 -31 -141 -25 -469 -25 -645 -1 -301 42 -594 146 -866 306 -224 132 -462
340 -629 550 -241 303 -416 698 -470 1060 -3 20 -8 47 -10 60 -25 126 -25 431
-1 635 44 375 230 810 482 1126 64 82 277 298 338 344 21 17 44 35 50 40 43
39 197 143 281 190 179 101 399 190 571 230 103 25 105 25 159 35 85 15 117
20 200 26 44 3 81 7 83 9 5 4 334 -4 367 -9z"/>
<path d="M2148 4063 c-9 -10 -21 -28 -27 -40 -8 -16 -11 -412 -11 -1463 0
-1573 -4 -1472 56 -1519 27 -21 35 -21 399 -21 l372 1 25 27 c14 15 31 37 37
49 8 16 11 418 11 1466 l0 1444 -23 34 -23 34 -400 3 c-372 2 -402 1 -416 -15z"/>
<path d="M3318 3225 c-3 -4 -12 -7 -20 -8 -20 -4 -52 -29 -71 -59 -16 -25 -17
-96 -17 -1038 l0 -1010 23 -35 c12 -19 32 -39 45 -45 15 -6 155 -10 388 -10
l366 0 34 34 34 34 0 1023 c0 793 -3 1029 -13 1048 -6 13 -25 34 -40 45 -27
20 -41 21 -376 24 -191 1 -350 0 -353 -3z"/>
<path d="M1079 2327 l-34 -23 -3 -619 -2 -619 21 -22 22 -23 367 -1 c242 0
376 3 392 10 12 6 33 26 46 45 l22 35 0 569 c0 630 3 603 -65 650 -30 20 -40
21 -382 21 -348 0 -350 0 -384 -23z"/>
</g>
</svg>
