<svg fill="none" height="159" viewBox="0 0 158 159" width="158" xmlns="http://www.w3.org/2000/svg" xmlns:xlink="http://www.w3.org/1999/xlink"><linearGradient id="a"><stop offset="0" stop-color="#ec796b"/><stop offset="1" stop-color="#e175b1"/></linearGradient><linearGradient id="b" gradientUnits="userSpaceOnUse" x1="139.176" x2="28.5" xlink:href="#a" y1="55.5045" y2="117"/><linearGradient id="c" gradientUnits="userSpaceOnUse" x1="128.07" x2="110.069" xlink:href="#a" y1="107.781" y2="109.685"/><g clip-rule="evenodd" fill-rule="evenodd"><path d="m-.00000368 79.9964c0 43.6306 35.36850368 78.9986 78.99880368 78.9986 43.6302 0 79.0012-35.368 79.0012-78.9986 0-43.6303-35.371-78.998841-79.0012-78.998841-43.6303 0-78.99880368 35.368541-78.99880368 78.998841z" fill="#0c0c4f"/><path d="m44.1542 61.3851 1.9501-6.0248c.3964-1.2253 1.3635-2.1789 2.5934-2.5549l6.0543-1.8618c.838-.2559.8448-1.4382.0136-1.7078l-6.0271-1.9501c-1.2231-.3964-2.1767-1.3635-2.5549-2.5934l-1.8596-6.0543c-.2559-.8358-1.4382-.8448-1.7078-.0113l-1.9501 6.0248c-.3964 1.2231-1.3635 2.1767-2.5934 2.5549l-6.0543 1.8596c-.838.2582-.8471 1.4382-.0136 1.7077l6.0271 1.9502c1.2231.3964 2.1767 1.3658 2.5549 2.5956l1.8596 6.0521c.2559.838 1.4382.8471 1.7078.0135z" fill="#fafafa"/><path d="m139.848 57.8786c-2.496-2.791-6.391-4.3624-10.178-5.0069-3.817-.6189-7.82-.5614-11.588.108-7.625 1.2898-14.552 4.4471-20.5939 8.342-3.1375 1.9115-5.8131 4.1233-8.5851 6.3759-1.3356 1.1392-2.5533 2.3523-3.8215 3.5482l-3.4652 3.4477c-3.7653 3.9358-7.4765 7.5206-11.0673 10.4919-3.6053 2.9576-6.976 5.2039-10.2978 6.7725-3.3197 1.5768-6.8718 2.5041-11.5017 2.6526-4.5892.1618-10.0188-.6664-15.8266-2.0336-5.839-1.3611-11.9706-3.3012-18.8225-4.9705 2.3908 6.6326 5.991 12.4936 10.6133 17.8516 4.6765 5.265 10.516 10.064 18.0177 13.22 7.3933 3.226 16.6843 4.383 25.3717 2.636 8.7104-1.676 16.3542-5.707 22.5328-10.368 6.1945-4.709 11.2061-10.074 15.4311-15.6504 1.166-1.5408 1.783-2.4032 2.627-3.6075l2.333-3.4554c1.621-2.1374 3.097-4.571 4.701-6.6888 3.146-4.4352 6.248-8.8652 9.852-12.9467 1.814-2.0701 3.727-4.0501 5.985-5.953 1.126-.9289 2.343-1.8378 3.691-2.6567 1.368-.8831 2.813-1.5744 4.592-2.1089z" fill="url(#b)"/><path d="m139.848 57.8783c-2.681-6.7659-7.666-12.4613-14.357-16.6641-6.65-4.1565-15.886-6.2778-25.039-4.4695-4.5213.8744-8.9019 2.558-12.7461 4.8001-3.8268 2.2331-7.256 4.9213-10.2247 7.8052-1.482 1.4468-2.8272 2.956-4.1636 4.4737l-3.4638 4.4162-5.3499 7.1089c-6.8203 9.1463-14.1648 19.8654-26.2176 23.0415-11.8323 3.1181-16.9642.3566-24.1859-.7842 1.3205 3.4091 2.9561 6.7198 5.1735 9.6323 2.1761 2.9716 4.7465 5.7626 7.9421 8.1546 1.6149 1.149 3.3199 2.283 5.2135 3.245 1.8851.929 3.9179 1.747 6.0877 2.363 4.316 1.183 9.1751 1.597 13.8798.961 4.7069-.628 9.2059-2.12 13.1385-4.101 3.9616-1.962 7.4126-4.352 10.4941-6.874 6.1255-5.0873 10.8901-10.7079 14.9148-16.3894 2.0244-2.8407 3.862-5.7349 5.5615-8.6298l2.0003-3.4467c.6115-1.0074 1.23-2.0211 1.8578-2.9652 2.535-3.7929 5.014-6.8343 8.025-9.117 2.969-2.3418 7.104-4.072 12.629-4.474 5.502-.4068 11.854.3446 18.83 1.9134z" fill="#fafafa"/><path d="m110.081 114.095c0 4.969 4.031 9 9 9 4.97 0 8.995-4.031 8.995-9 0-4.97-4.025-9-8.995-9-4.969 0-9 4.03-9 9z" fill="url(#c)"/></g></svg>